<svg xmlns="http://www.w3.org/2000/svg" viewBox="0 0 392.79 688"><defs><style>.cls-1{fill:#1d539f;}.cls-2{fill:#163e77;}.cls-3,.cls-4{fill:#fff;}.cls-4{fill-rule:evenodd;}</style></defs><title>league-apac-2020-season-trust-badge-template-Blue</title><g id="Blue"><g id="Trust_Badge_Blue_" data-name="Trust Badge (Blue)"><path id="Background_Bottom_" data-name="Background (Bottom)" class="cls-1" d="M21.78,267.74c0-2.6,5.55-3.74,9.27-3.74H363.3c3.72,0,4.48,1.14,4.48,3.74V622a7.43,7.43,0,0,1-4.86,6.92L204,687.12a19.61,19.61,0,0,1-11.72,0L28.9,628.93c-3.3-1.18-7.12-4.29-7.12-6.89Z"/><g id="Official_Plate" data-name="Official Plate"><polygon id="Shadow" class="cls-2" points="355.89 390.68 355.89 350.02 34.24 350.02 355.89 390.68"/><path id="Plate_Background" data-name="Plate Background" class="cls-3" d="M377.07,332.51s-159.77,52.81-361.36,0V229.73c186,48.41,361.36,0,361.36,0Z"/><path id="Plate_Border" data-name="Plate Border" class="cls-1" d="M377.07,229.73V332.51S306.05,356,199,356A723.46,723.46,0,0,1,15.71,332.51V229.73c62,16.13,122.81,21.51,176.34,21.51,107.07,0,185-21.51,185-21.51m15.58-20.47-19.72,5.45c-.83.23-77.47,20.95-180.88,20.95-60.84,0-118.85-7.07-172.41-21L.13,209.57v135l11.64,3.05a739.17,739.17,0,0,0,187.22,24c108.32,0,180-23.27,183-24.26l10.69-3.53V209.26Z"/><g id="Official"><path class="cls-1" d="M75.44,269.91a7.86,7.86,0,0,1,3,1.21,8.43,8.43,0,0,1,2.2,2.13A8.59,8.59,0,0,1,81.86,276a7.48,7.48,0,0,1,.1,3.16q-2.74,15.6-5.51,31.21a7.07,7.07,0,0,1-1.23,2.92A8.37,8.37,0,0,1,73,315.51a8,8,0,0,1-3,1.18,9.1,9.1,0,0,1-3.41,0Q53.77,314.25,41,311.36A9.29,9.29,0,0,1,37.89,310a8.64,8.64,0,0,1-2.3-2.29,7.8,7.8,0,0,1-1.2-2.9,7.54,7.54,0,0,1,.08-3.17q3.7-15.4,7.4-30.81A7.9,7.9,0,0,1,43.2,268a7.64,7.64,0,0,1,2.27-2.05,9.12,9.12,0,0,1,2.91-1.06,7.85,7.85,0,0,1,3.2.07Q63.47,267.64,75.44,269.91Zm-6.28,10.56q-8.07-1.58-16.11-3.35L47.77,301q8.34,1.85,16.69,3.48Q66.82,292.49,69.16,280.47Z"/><path class="cls-1" d="M130,278.29a1.3,1.3,0,0,1,.28.95l-.93,8.93a1.24,1.24,0,0,1-.48.87,1.27,1.27,0,0,1-1,.28q-11.61-1.24-23.2-2.87c-.23,0-.36,0-.38.22q-.52,3.66-1,7.34a.3.3,0,0,0,.3.38q8.88,1.26,17.79,2.28a1.18,1.18,0,0,1,.87.47,1.3,1.3,0,0,1,.25,1c-.32,2.81-.63,5.63-1,8.44a1.29,1.29,0,0,1-.46.87,1.22,1.22,0,0,1-1,.27q-9-1-18.08-2.31a.3.3,0,0,0-.4.28q-1.08,7.58-2.15,15.15c-.12.86-.64,1.22-1.56,1.09-3.35-.49-6.7-1-10-1.52-.92-.15-1.31-.64-1.18-1.5q3.57-22.22,7.12-44.44a1.16,1.16,0,0,1,1.5-1.08q16.86,2.67,33.8,4.47A1.31,1.31,0,0,1,130,278.29Z"/><path class="cls-1" d="M173.38,281.42a1.23,1.23,0,0,1,.34.93c-.11,3-.23,6-.34,9a1.28,1.28,0,0,1-.42.9,1.34,1.34,0,0,1-1,.34q-11.66-.48-23.3-1.35c-.24,0-.36.06-.37.24-.19,2.47-.37,4.93-.56,7.39a.31.31,0,0,0,.32.37q8.94.68,17.88,1.11a1.21,1.21,0,0,1,.9.42,1.28,1.28,0,0,1,.31.93q-.21,4.24-.4,8.49a1.3,1.3,0,0,1-.4.9,1.22,1.22,0,0,1-.95.33q-9.09-.45-18.17-1.13a.31.31,0,0,0-.38.31q-.57,7.64-1.15,15.26c-.07.86-.57,1.25-1.49,1.18-3.37-.26-6.73-.55-10.1-.85-.93-.09-1.35-.56-1.27-1.42q2.12-22.41,4.21-44.82a1.15,1.15,0,0,1,1.42-1.17q17,1.56,34,2.26A1.23,1.23,0,0,1,173.38,281.42Z"/><path class="cls-1" d="M192.18,327.83c0,.86-.48,1.29-1.4,1.28-3.38-.05-6.75-.11-10.13-.2-.93,0-1.38-.47-1.35-1.33q.64-22.5,1.28-45a1.16,1.16,0,0,1,1.34-1.26q4.72.14,9.45.19a1.14,1.14,0,0,1,1.28,1.31Q192.43,305.32,192.18,327.83Z"/><path class="cls-1" d="M215.92,293.27a1.11,1.11,0,0,0-.36.89q.25,11,.52,22a1.11,1.11,0,0,0,.41.88,1.45,1.45,0,0,0,1,.31q11.58-.28,23.15-1a1.34,1.34,0,0,1,1,.31,1.26,1.26,0,0,1,.46.9l.54,8.95a1.24,1.24,0,0,1-.35.95,1.48,1.48,0,0,1-1,.43q-7.65.44-15.32.73-6.3.22-12.61.35l-1.32,0a9,9,0,0,1-3.35-.56,8.4,8.4,0,0,1-2.76-1.67,7.6,7.6,0,0,1-1.84-2.54,7.41,7.41,0,0,1-.68-3.09V320l0-5q0-7.93-.08-15.85l0-4.42,0-5.23a7.94,7.94,0,0,1,.61-3.1,7.52,7.52,0,0,1,1.7-2.53,9,9,0,0,1,2.56-1.73,7.79,7.79,0,0,1,3.1-.69l1.24,0q13-.26,26.07-1a1.23,1.23,0,0,1,.94.32,1.22,1.22,0,0,1,.44.89l.54,9a1.24,1.24,0,0,1-.33.94,1.31,1.31,0,0,1-.92.43q-11.16.64-22.34.93A1.35,1.35,0,0,0,215.92,293.27Z"/><path class="cls-1" d="M267.09,324.68c.08.86-.34,1.33-1.27,1.41-3.36.32-6.73.61-10.09.87-.93.07-1.43-.32-1.49-1.18q-1.73-22.44-3.44-44.88a1.14,1.14,0,0,1,1.2-1.39q4.71-.37,9.42-.81a1.15,1.15,0,0,1,1.42,1.16Q265,302.27,267.09,324.68Z"/><path class="cls-1" d="M305.38,273.14a7.78,7.78,0,0,1,3.19.13,8.61,8.61,0,0,1,2.8,1.26,8.35,8.35,0,0,1,2.12,2.19,7.5,7.5,0,0,1,1.18,2.94q3.25,18.9,6.52,37.79a1.17,1.17,0,0,1-.24,1,1.39,1.39,0,0,1-.92.54q-5,.85-10.09,1.65a1.38,1.38,0,0,1-1-.22,1.21,1.21,0,0,1-.54-.84l-1.85-12a1.29,1.29,0,0,0-.5-.86,1.22,1.22,0,0,0-1-.22q-7,1.06-14.12,2a1.33,1.33,0,0,0-.91.49,1.21,1.21,0,0,0-.28,1L291.28,322c.11.85-.29,1.34-1.22,1.46-3.35.42-6.71.83-10.07,1.21-.92.1-1.43-.28-1.52-1.13q-2.13-19.06-4.24-38.12a7.88,7.88,0,0,1,.28-3.14,7.46,7.46,0,0,1,1.43-2.7,9.14,9.14,0,0,1,2.36-2,7.82,7.82,0,0,1,3-1Q293.38,275.07,305.38,273.14Zm-.62,23q-.92-5.91-1.82-11.83-8.1,1.25-16.23,2.3.77,5.94,1.54,11.87Q296.52,297.42,304.76,296.16Z"/><path class="cls-1" d="M362.72,298.45a1.27,1.27,0,0,1,1.57,1c.7,2.91,1.4,5.81,2.09,8.72a1.24,1.24,0,0,1-.14,1,1.27,1.27,0,0,1-.85.59q-15.51,3.69-31.15,6.69c-.92.17-1.46-.16-1.62-1q-4.19-22.11-8.38-44.23a1.15,1.15,0,0,1,1.05-1.51c3.1-.6,6.21-1.21,9.31-1.85a1.14,1.14,0,0,1,1.54,1L343,301.6a1.09,1.09,0,0,0,.57.79,1.45,1.45,0,0,0,1,.13Q353.67,300.62,362.72,298.45Z"/></g></g><g id="Background_Top_" data-name="Background (Top)"><path class="cls-1" d="M392.9,209.24,373,199.37,372.78,0h-355l.37,201L-.11,210l18.26,12.69V223h.41l1.12.78.08-.78h6.16s170.42,51.17,344.48.78H373V223l.12,0Z"/></g><g id="_2019_Season" data-name="2019 Season"><g id="Season"><path class="cls-3" d="M87.94,561.43a7.51,7.51,0,0,1,2.5,1.69,8.65,8.65,0,0,1,1.68,2.5,7.19,7.19,0,0,1,.64,3v12.69a7.44,7.44,0,0,1-.64,3.07,8.53,8.53,0,0,1-1.68,2.53,7.37,7.37,0,0,1-2.5,1.69,7.79,7.79,0,0,1-3.07.61H57.94A1.13,1.13,0,0,1,56.66,588v-8.17a1.26,1.26,0,0,1,1.28-1.28h23a1.29,1.29,0,0,0,.91-.34,1.15,1.15,0,0,0,.37-.88v-5.6a1.27,1.27,0,0,0-.37-.91,1.23,1.23,0,0,0-.91-.37H64.55a7.86,7.86,0,0,1-7.28-4.79,7.57,7.57,0,0,1-.61-3V549.89a7.79,7.79,0,0,1,.61-3.07,7.34,7.34,0,0,1,1.68-2.5,8.86,8.86,0,0,1,2.53-1.68,7.48,7.48,0,0,1,3.07-.64H90a1.13,1.13,0,0,1,1.28,1.28v8.3a1.13,1.13,0,0,1-.37.88,1.32,1.32,0,0,1-.91.33H68.47a1.14,1.14,0,0,0-.88.38,1.31,1.31,0,0,0-.34.91v5.46a1.31,1.31,0,0,0,.34.91,1.14,1.14,0,0,0,.88.38h16.4A8,8,0,0,1,87.94,561.43Z"/><path class="cls-3" d="M138.76,542.37a1.25,1.25,0,0,1,.37.91v8.5a1.17,1.17,0,0,1-.37.88,1.33,1.33,0,0,1-.91.34H115.24c-.23,0-.34.11-.34.33v7.36c0,.18.11.27.34.27h19.3a1.13,1.13,0,0,1,.88.37,1.32,1.32,0,0,1,.33.91V569a1.31,1.31,0,0,1-.33.91,1.13,1.13,0,0,1-.88.37h-19.3a.3.3,0,0,0-.34.34v7.29a.3.3,0,0,0,.34.34h22.61a1.23,1.23,0,0,1,.91.37,1.27,1.27,0,0,1,.37.91V588a1.27,1.27,0,0,1-.37.91,1.23,1.23,0,0,1-.91.37H104.3A1.13,1.13,0,0,1,103,588V543.28a1.25,1.25,0,0,1,.37-.91,1.23,1.23,0,0,1,.91-.37h33.55A1.23,1.23,0,0,1,138.76,542.37Z"/><path class="cls-3" d="M181.58,542a7.48,7.48,0,0,1,3.07.64,8.32,8.32,0,0,1,2.5,1.68,8.14,8.14,0,0,1,1.68,2.5,7.48,7.48,0,0,1,.65,3.07V588a1.24,1.24,0,0,1-.38.91,1.21,1.21,0,0,1-.91.37h-9.38a1.26,1.26,0,0,1-1.28-1.28V575.88a1.31,1.31,0,0,0-.34-.92,1.15,1.15,0,0,0-.88-.37H163a1.27,1.27,0,0,0-.91.37,1.25,1.25,0,0,0-.37.92V588a1.13,1.13,0,0,1-1.28,1.28h-9.32a1.13,1.13,0,0,1-1.28-1.28V549.89a7.79,7.79,0,0,1,.61-3.07,7.37,7.37,0,0,1,1.69-2.5,8.73,8.73,0,0,1,2.53-1.68,7.44,7.44,0,0,1,3.07-.64Zm-4.05,22.47V552.59H161.67v11.88Z"/><path class="cls-3" d="M231.22,561.43a7.47,7.47,0,0,1,2.49,1.69,8.68,8.68,0,0,1,1.69,2.5,7.19,7.19,0,0,1,.64,3v12.69a7.44,7.44,0,0,1-.64,3.07,8.56,8.56,0,0,1-1.69,2.53,7.33,7.33,0,0,1-2.49,1.69,7.79,7.79,0,0,1-3.07.61H201.22a1.13,1.13,0,0,1-1.28-1.28v-8.17a1.23,1.23,0,0,1,.37-.91,1.21,1.21,0,0,1,.91-.37h22.95a1.3,1.3,0,0,0,.91-.34,1.15,1.15,0,0,0,.37-.88v-5.6a1.27,1.27,0,0,0-.37-.91,1.25,1.25,0,0,0-.91-.37H207.83a7.79,7.79,0,0,1-3.07-.61,7.7,7.7,0,0,1-2.53-1.69,8,8,0,0,1-1.69-2.49,7.74,7.74,0,0,1-.6-3V549.89a8,8,0,0,1,.6-3.07,7.51,7.51,0,0,1,1.69-2.5,8.73,8.73,0,0,1,2.53-1.68,7.48,7.48,0,0,1,3.07-.64h25.44a1.13,1.13,0,0,1,1.29,1.28v8.3a1.17,1.17,0,0,1-.37.88,1.33,1.33,0,0,1-.92.33H211.75a1.13,1.13,0,0,0-.88.38,1.27,1.27,0,0,0-.34.91v5.46a1.27,1.27,0,0,0,.34.91,1.13,1.13,0,0,0,.88.38h16.4A8,8,0,0,1,231.22,561.43Z"/><path class="cls-3" d="M278,542a7.44,7.44,0,0,1,3.07.64,8.32,8.32,0,0,1,2.5,1.68,8.16,8.16,0,0,1,1.69,2.5,7.64,7.64,0,0,1,.64,3.07v31.45a7.61,7.61,0,0,1-.64,3.07,8.56,8.56,0,0,1-1.69,2.53,7.37,7.37,0,0,1-2.5,1.69,7.75,7.75,0,0,1-3.07.61H254.06a7.79,7.79,0,0,1-3.07-.61,7.7,7.7,0,0,1-2.53-1.69,7.84,7.84,0,0,1-2.29-5.6V549.89a8,8,0,0,1,.6-3.07,7.51,7.51,0,0,1,1.69-2.5,8.73,8.73,0,0,1,2.53-1.68,7.48,7.48,0,0,1,3.07-.64Zm-4.05,11.47H258v24.29H273.9Z"/><path class="cls-3" d="M335.76,542.37a1.25,1.25,0,0,1,.37.91V588a1.27,1.27,0,0,1-.37.91,1.23,1.23,0,0,1-.91.37h-9.72a2.12,2.12,0,0,1-1.08-.31,2.08,2.08,0,0,1-.81-.77l-14.92-27.54V588a1.13,1.13,0,0,1-1.28,1.28h-9.31a1.14,1.14,0,0,1-1.29-1.28V543.28a1.13,1.13,0,0,1,1.29-1.28h9.58a2.21,2.21,0,0,1,1.08.3,2,2,0,0,1,.81.78l15,27.6v-27.4a1.25,1.25,0,0,1,.37-.91,1.23,1.23,0,0,1,.91-.37h9.39A1.23,1.23,0,0,1,335.76,542.37Z"/></g><g id="_2020" data-name="2020"><path class="cls-3" d="M76.25,487.83V498a1.91,1.91,0,0,0,2.06,1.71h38.3a1.9,1.9,0,0,1,1.48.63,2.21,2.21,0,0,1,.57,1.54v13.79a2.21,2.21,0,0,1-.57,1.54,1.9,1.9,0,0,1-1.48.63H60.52a1.91,1.91,0,0,1-2.16-2.17V483a12.91,12.91,0,0,1,1-5.13,13.55,13.55,0,0,1,2.85-4.22,13,13,0,0,1,4.28-2.85,13.34,13.34,0,0,1,5.18-1h27a2.13,2.13,0,0,0,2.17-2.16v-9.24a2.07,2.07,0,0,0-.63-1.53,2.09,2.09,0,0,0-1.54-.63H62.92a2,2,0,0,1-2.06-2.05v-14a2.22,2.22,0,0,1,.57-1.54,2,2,0,0,1,1.49-.62h42.52a12.36,12.36,0,0,1,5.13,1.08,14.8,14.8,0,0,1,4.22,2.85,12.79,12.79,0,0,1,2.85,4.22,13.34,13.34,0,0,1,1,5.19v3.19a.44.44,0,0,1,.12.34V484a1.9,1.9,0,0,1-.63,1.48,2.21,2.21,0,0,1-1.54.57H78.31A2,2,0,0,0,76.25,487.83Z"/><path class="cls-3" d="M178.28,438a12.7,12.7,0,0,1,5.19,1.08,13.38,13.38,0,0,1,7.07,7.07,12.7,12.7,0,0,1,1.08,5.19v53.12a12.77,12.77,0,0,1-1.08,5.19,14.38,14.38,0,0,1-2.85,4.27,12.49,12.49,0,0,1-4.22,2.85,13.17,13.17,0,0,1-5.19,1H144a13.24,13.24,0,0,1-5.19-1,13.12,13.12,0,0,1-7.12-7.12,13.24,13.24,0,0,1-1-5.19V451.35a13.17,13.17,0,0,1,1-5.19,12.49,12.49,0,0,1,2.85-4.22,14.38,14.38,0,0,1,4.27-2.85A12.77,12.77,0,0,1,144,438h34.31Zm-6,19.38H150v41h22.23Z"/><path class="cls-3" d="M221.15,487.83V498a1.9,1.9,0,0,0,2,1.71h38.3a1.93,1.93,0,0,1,1.49.63,2.2,2.2,0,0,1,.56,1.54v13.79a2.2,2.2,0,0,1-.56,1.54,1.93,1.93,0,0,1-1.49.63H205.42a1.92,1.92,0,0,1-2.17-2.17V483a12.74,12.74,0,0,1,1-5.13,13.22,13.22,0,0,1,2.85-4.22,13,13,0,0,1,4.27-2.85,13.35,13.35,0,0,1,5.19-1h27a2.06,2.06,0,0,0,1.53-.62,2.09,2.09,0,0,0,.63-1.54v-9.24a2.15,2.15,0,0,0-2.16-2.16h-35.8a2,2,0,0,1-2.05-2.05v-14a2.22,2.22,0,0,1,.57-1.54,1.92,1.92,0,0,1,1.48-.62h42.52a12.29,12.29,0,0,1,5.13,1.08,14.66,14.66,0,0,1,4.22,2.85,12.64,12.64,0,0,1,2.85,4.22,13.34,13.34,0,0,1,1,5.19v3.19a.44.44,0,0,1,.12.34V484a1.9,1.9,0,0,1-.63,1.48,2.21,2.21,0,0,1-1.54.57H223.2A2,2,0,0,0,221.15,487.83Z"/><path class="cls-3" d="M323.18,438a12.69,12.69,0,0,1,5.18,1.08,13.38,13.38,0,0,1,7.07,7.07,12.7,12.7,0,0,1,1.08,5.19v53.12a12.77,12.77,0,0,1-1.08,5.19,14.38,14.38,0,0,1-2.85,4.27,12.39,12.39,0,0,1-4.22,2.85,13.16,13.16,0,0,1-5.18,1H288.86a13.41,13.41,0,0,1-9.46-3.88,13,13,0,0,1-2.85-4.27,13.42,13.42,0,0,1-1-5.19V451.35a13.35,13.35,0,0,1,1-5.19,12.49,12.49,0,0,1,2.85-4.22,14.43,14.43,0,0,1,4.28-2.85,12.69,12.69,0,0,1,5.18-1.08h34.32Zm-6.05,19.38H294.9v41h22.23Z"/></g></g><path class="cls-4" d="M80.69,142.48a6.18,6.18,0,0,1,.75.45,1.58,1.58,0,0,1,.46.76,4,4,0,0,1,.15.9v11c0,.08,0,.23-.08.23a.29.29,0,0,1-.23.07H79a.26.26,0,0,1-.3-.3v-9.93H76.55v9.93c0,.08,0,.23-.07.23a.3.3,0,0,1-.23.07H73.77c-.07,0-.22,0-.22-.07a.27.27,0,0,1-.08-.23v-9.93H71.29v9.93a.36.36,0,0,1-.38.38h-2.7a.36.36,0,0,1-.38-.38V142.71a.36.36,0,0,1,.38-.38H79.94A.94.94,0,0,1,80.69,142.48Z"/><path class="cls-4" d="M94.31,142.26a3.53,3.53,0,0,1,.9.15,6.18,6.18,0,0,1,.75.45,1.46,1.46,0,0,1,.45.75,3.53,3.53,0,0,1,.15.9v11c0,.07,0,.22-.07.22a.27.27,0,0,1-.23.08H93.55c-.07,0-.22,0-.22-.08a.26.26,0,0,1-.08-.22V152c0-.07,0-.22-.07-.22a.27.27,0,0,0-.23-.08H89.12c-.08,0-.23,0-.23.08a.28.28,0,0,0-.07.22v3.47a.35.35,0,0,1-.38.37H85.73a.35.35,0,0,1-.37-.37v-11a3.53,3.53,0,0,1,.15-.9,6.18,6.18,0,0,1,.45-.75,1.46,1.46,0,0,1,.75-.45,1.9,1.9,0,0,1,.9-.15Zm-1.21,6.46v-3.38H88.51v3.38Z"/><path class="cls-4" d="M108.82,142.41a.26.26,0,0,1,.08.22v11a4,4,0,0,1-.15.91,7.07,7.07,0,0,1-.45.75,1.5,1.5,0,0,1-.75.45,1.94,1.94,0,0,1-.91.15h-5.86a3.61,3.61,0,0,1-.91-.15,7.07,7.07,0,0,1-.75-.45,1.66,1.66,0,0,1-.45-.75,1.92,1.92,0,0,1-.15-.91v-4.13a.36.36,0,0,1,.38-.38h2.7a.36.36,0,0,1,.38.38v2.78a.27.27,0,0,0,.08.23.27.27,0,0,0,.22.07h2.78c.08,0,.23,0,.23-.07a.3.3,0,0,0,.07-.23v-9.55c0-.08,0-.23.08-.23a.29.29,0,0,1,.23-.07h2.7C108.6,142.26,108.75,142.33,108.82,142.41Z"/><path class="cls-4" d="M121.09,142.26a3.53,3.53,0,0,1,.9.15,6.18,6.18,0,0,1,.75.45,1.46,1.46,0,0,1,.45.75,3.53,3.53,0,0,1,.15.9v9a3.53,3.53,0,0,1-.15.9,6.18,6.18,0,0,1-.45.75,1.55,1.55,0,0,1-.75.46,1.9,1.9,0,0,1-.9.15h-6.85a4,4,0,0,1-.9-.15,6.16,6.16,0,0,1-.75-.46,1.55,1.55,0,0,1-.46-.75,1.9,1.9,0,0,1-.15-.9v-9a4,4,0,0,1,.15-.9,2.56,2.56,0,0,1,.46-.75,1.46,1.46,0,0,1,.75-.45,1.9,1.9,0,0,1,.9-.15Zm-1.21,3.31h-4.59v7h4.59Z"/><path class="cls-4" d="M138.24,155.57a.15.15,0,0,1,0,.23c-.08.07-.08.07-.23.07h-3.08a.46.46,0,0,1-.3-.07l-.23-.23-2-3.69c0-.07-.08-.07-.15-.07h-2.33c-.08,0-.08,0-.08.07v3.62a.35.35,0,0,1-.37.37h-2.71a.35.35,0,0,1-.38-.37V142.63a.35.35,0,0,1,.38-.37h8.8a3.53,3.53,0,0,1,.9.15,6.18,6.18,0,0,1,.75.45,1.46,1.46,0,0,1,.45.75,1.8,1.8,0,0,1,.16.9v5.12a2.27,2.27,0,0,1-.46,1.35,2.41,2.41,0,0,1-1.12.83h-.08c-.08,0-.08.07-.08.15V152Zm-3.84-10.15h-4.66v3.3h4.66Z"/><path class="cls-4" d="M156.52,152.56a.28.28,0,0,1,.3.3v2.56c0,.08,0,.23-.08.23a.28.28,0,0,1-.22.07h-8.35a.36.36,0,0,1-.38-.38V142.48a.35.35,0,0,1,.38-.37h2.7a.35.35,0,0,1,.38.37V152a.26.26,0,0,0,.08.23.26.26,0,0,0,.22.08h5Z"/><path class="cls-4" d="M169.08,142.41a.28.28,0,0,1,.07.22v2.48a.3.3,0,0,1-.07.23.27.27,0,0,1-.23.08h-6.47c-.07,0-.07,0-.07.07v2.11c0,.07,0,.07.07.07H168a.28.28,0,0,1,.3.3v2c0,.07,0,.22-.08.22a.26.26,0,0,1-.22.08h-5.57c-.07,0-.07,0-.07.07v2.11c0,.08,0,.08.07.08h6.47c.08,0,.23,0,.23.07a.3.3,0,0,1,.07.23v2.4c0,.08,0,.23-.07.23a.27.27,0,0,1-.23.08h-9.63a.36.36,0,0,1-.37-.38V142.26c0-.08,0-.23.07-.23a.27.27,0,0,1,.23-.08h9.63A1.37,1.37,0,0,0,169.08,142.41Z"/><path class="cls-4" d="M181.41,142.26a3.61,3.61,0,0,1,.91.15,7.07,7.07,0,0,1,.75.45,1.61,1.61,0,0,1,.45.75,4,4,0,0,1,.15.9v11c0,.07,0,.22-.08.22a.26.26,0,0,1-.22.08h-2.78c-.08,0-.23,0-.23-.08a.28.28,0,0,1-.07-.22V152c0-.07,0-.22-.08-.22a.27.27,0,0,0-.23-.08h-3.91c-.07,0-.22,0-.22.08a.26.26,0,0,0-.08.22v3.47a.35.35,0,0,1-.37.37h-2.71a.35.35,0,0,1-.38-.37v-11a4,4,0,0,1,.15-.9,6.18,6.18,0,0,1,.45-.75,1.49,1.49,0,0,1,.76-.45,1.9,1.9,0,0,1,.9-.15Zm-1.2,6.46v-3.38h-4.59v3.38Z"/><path class="cls-4" d="M198,148.58a.27.27,0,0,1,.07.22v4.81a3.53,3.53,0,0,1-.15.91,7.07,7.07,0,0,1-.45.75,1.5,1.5,0,0,1-.75.45,1.9,1.9,0,0,1-.9.15H189a3.53,3.53,0,0,1-.9-.15,6.18,6.18,0,0,1-.75-.45,1.6,1.6,0,0,1-.46-.75,1.92,1.92,0,0,1-.15-.91v-9a4,4,0,0,1,.15-.9,2.61,2.61,0,0,1,.46-.76,1.61,1.61,0,0,1,.75-.45,1.9,1.9,0,0,1,.9-.15h8.05c.08,0,.22,0,.22.08a.26.26,0,0,1,.08.22v2.56c0,.07,0,.23-.08.23a.27.27,0,0,1-.22.07h-6.47c-.07,0-.23,0-.23.08a.28.28,0,0,0-.07.22v6.32a.3.3,0,0,0,.07.23.31.31,0,0,0,.23.07h3.84a.28.28,0,0,0,.22-.07.27.27,0,0,0,.08-.23v-3.39c0-.07,0-.22.07-.22a.27.27,0,0,1,.23-.08h2.71A.59.59,0,0,1,198,148.58Z"/><path class="cls-4" d="M212.33,142.41a.28.28,0,0,1,.07.22v11a3.53,3.53,0,0,1-.15.91,7.07,7.07,0,0,1-.45.75,1.46,1.46,0,0,1-.75.45,1.9,1.9,0,0,1-.9.15H203.3a3.53,3.53,0,0,1-.9-.15,6.18,6.18,0,0,1-.75-.45,1.5,1.5,0,0,1-.45-.75,1.92,1.92,0,0,1-.15-.91v-11a.35.35,0,0,1,.37-.37h2.71a.35.35,0,0,1,.38.37v9.56a.28.28,0,0,0,.07.22.27.27,0,0,0,.23.08h3.83a.27.27,0,0,0,.23-.08.28.28,0,0,0,.07-.22v-9.56c0-.07,0-.22.08-.22a.27.27,0,0,1,.23-.08H212C212.18,142.26,212.25,142.33,212.33,142.41Z"/><path class="cls-4" d="M225.79,142.41a.26.26,0,0,1,.08.22v2.48a.27.27,0,0,1-.08.23.26.26,0,0,1-.22.08H219.1c-.08,0-.08,0-.08.07v2.11c0,.07,0,.07.08.07h5.57a.28.28,0,0,1,.3.3v2c0,.07,0,.22-.08.22a.26.26,0,0,1-.22.08H219.1c-.08,0-.08,0-.08.07v2.11c0,.08,0,.08.08.08h6.47c.07,0,.22,0,.22.07a.27.27,0,0,1,.08.23v2.4c0,.08,0,.23-.08.23a.26.26,0,0,1-.22.08h-9.63a.36.36,0,0,1-.38-.38V142.26c0-.08,0-.23.08-.23a.26.26,0,0,1,.22-.08h9.63A1.55,1.55,0,0,0,225.79,142.41Z"/><path class="cls-4" d="M246.63,142.26c.08,0,.23,0,.23.07a.3.3,0,0,1,.07.23v12.86c0,.08,0,.23-.07.23a.3.3,0,0,1-.23.07h-2.71c-.07,0-.22,0-.22-.07a.27.27,0,0,1-.08-.23v-4.51a.26.26,0,0,0-.3-.3h-3.84c-.07,0-.22,0-.22.07a.27.27,0,0,0-.08.23v4.51a.35.35,0,0,1-.37.38H236.1a.36.36,0,0,1-.38-.38V142.56a.36.36,0,0,1,.38-.38h2.71a.35.35,0,0,1,.37.38v4.36a.36.36,0,0,0,.38.38h3.84a.28.28,0,0,0,.3-.3v-4.37c0-.07,0-.22.07-.22a.27.27,0,0,1,.23-.08h2.63Z"/><path class="cls-4" d="M259.19,142.26a3.68,3.68,0,0,1,.91.15,7.07,7.07,0,0,1,.75.45,1.61,1.61,0,0,1,.45.75,4,4,0,0,1,.15.9v11c0,.07,0,.22-.08.22a.26.26,0,0,1-.22.08h-2.71c-.07,0-.23,0-.23-.08a.28.28,0,0,1-.07-.22V152c0-.07,0-.22-.08-.22a.26.26,0,0,0-.22-.08H254c-.07,0-.22,0-.22.08a.26.26,0,0,0-.08.22v3.47a.35.35,0,0,1-.37.37h-2.71a.35.35,0,0,1-.38-.37v-11a4,4,0,0,1,.15-.9,6.18,6.18,0,0,1,.45-.75,1.49,1.49,0,0,1,.76-.45,1.9,1.9,0,0,1,.9-.15Zm-1.13,6.46v-3.38h-4.58v3.38Z"/><path class="cls-4" d="M268,145.64a.3.3,0,0,0-.07.23v6.32a.28.28,0,0,0,.07.22.27.27,0,0,0,.23.08h6.24c.08,0,.23,0,.23.07a.3.3,0,0,1,.07.23v2.55c0,.08,0,.23-.07.23a.27.27,0,0,1-.23.08h-7.75a4,4,0,0,1-.9-.15c-.3-.16-.52-.31-.75-.46a1.46,1.46,0,0,1-.45-.75,1.9,1.9,0,0,1-.15-.9v-9.1a3.68,3.68,0,0,1,.15-.91,7.07,7.07,0,0,1,.45-.75,1.66,1.66,0,0,1,.75-.45,1.9,1.9,0,0,1,.9-.15h7.75c.08,0,.23,0,.23.08a.28.28,0,0,1,.07.22v2.56c0,.07,0,.22-.07.22a.27.27,0,0,1-.23.08h-6.24C268.14,145.57,268.07,145.64,268,145.64Z"/><path class="cls-4" d="M285.67,148c-.07.08-.07.08,0,.15l4.51,7.45a.14.14,0,0,1,0,.23c-.07.07-.07.07-.22.07h-3.24a.49.49,0,0,1-.3-.07l-.22-.23-2.94-5.27c-.07-.07-.07-.07-.07,0L281.61,152a.4.4,0,0,0-.15.31.62.62,0,0,0-.08.37v2.86a.35.35,0,0,1-.37.38h-2.64a.35.35,0,0,1-.37-.38V142.71a.35.35,0,0,1,.37-.38h2.71a.36.36,0,0,1,.38.38v5.79l5-5.87a1,1,0,0,1,.3-.22.53.53,0,0,1,.3-.08h3.23c.08,0,.15,0,.15.08a.28.28,0,0,1-.07.22Z"/><rect class="cls-3" x="292.67" y="142.26" width="3.46" height="13.62" rx="0.38"/><path class="cls-4" d="M309.21,142.48a6.37,6.37,0,0,1,.76.45,1.64,1.64,0,0,1,.45.76,1.9,1.9,0,0,1,.15.9v11c0,.08,0,.23-.08.23a.28.28,0,0,1-.22.07h-2.71a.26.26,0,0,1-.3-.3V146a.27.27,0,0,0-.08-.23.28.28,0,0,0-.22-.07h-3.84c-.07,0-.22,0-.22.07s-.08.15-.08.23v9.55a.36.36,0,0,1-.38.38h-2.7a.36.36,0,0,1-.38-.38V142.71a.36.36,0,0,1,.38-.38h8.8A.81.81,0,0,1,309.21,142.48Z"/><path class="cls-4" d="M324.94,148.58a.27.27,0,0,1,.07.22v4.81a3.53,3.53,0,0,1-.15.91,7.07,7.07,0,0,1-.45.75,1.5,1.5,0,0,1-.75.45,1.92,1.92,0,0,1-.91.15h-6.84a3.53,3.53,0,0,1-.9-.15,7.28,7.28,0,0,1-.76-.45,1.66,1.66,0,0,1-.45-.75,1.92,1.92,0,0,1-.15-.91v-9a4,4,0,0,1,.15-.9,2.59,2.59,0,0,1,.45-.76,1.69,1.69,0,0,1,.76-.45,1.9,1.9,0,0,1,.9-.15h8c.07,0,.22,0,.22.08a.26.26,0,0,1,.08.22v2.56c0,.07,0,.23-.08.23a.28.28,0,0,1-.22.07h-6.47c-.08,0-.23,0-.23.08a.28.28,0,0,0-.07.22v6.32a.26.26,0,0,0,.3.3h3.84a.28.28,0,0,0,.22-.07.27.27,0,0,0,.08-.23v-3.39c0-.07,0-.22.07-.22a.27.27,0,0,1,.23-.08h2.71A.39.39,0,0,1,324.94,148.58Z"/><path class="cls-4" d="M157.27,56.28a16.09,16.09,0,0,0-3.09-4.52,14.68,14.68,0,0,0-4.51-3.08,15.67,15.67,0,0,0-5.57-1.2h-74a2.17,2.17,0,0,0-2.41,2.4v83.27A2,2,0,0,0,70,135.49H86.93a2.05,2.05,0,0,0,2.34-2.34V68.31H103v64.84a2.32,2.32,0,0,0,2.33,2.34h15.5a2.06,2.06,0,0,0,1.58-.68,2.46,2.46,0,0,0,.6-1.66V68.31h13.77v64.84a2.46,2.46,0,0,0,.6,1.66,2,2,0,0,0,1.58.68h17.07a2.32,2.32,0,0,0,2.34-2.34V61.84A13.92,13.92,0,0,0,157.27,56.28Z"/><path class="cls-4" d="M234.44,114.8a2.08,2.08,0,0,0-1.65-.68v.08H197.21a2.33,2.33,0,0,1-1.73-.6,2,2,0,0,1-.75-1.66V50a2.17,2.17,0,0,0-2.48-2.41H174.34A2.17,2.17,0,0,0,171.86,50v83.19a2.17,2.17,0,0,0,2.48,2.41h58.45a2.17,2.17,0,0,0,1.65-.68,2.46,2.46,0,0,0,.68-1.73V116.53A2.34,2.34,0,0,0,234.44,114.8Z"/><path class="cls-4" d="M324.33,48.23a2.38,2.38,0,0,0-1.73-.68H304.4a2.38,2.38,0,0,0-1.73.68,2.27,2.27,0,0,0-.75,1.73V78.17a2.4,2.4,0,0,1-.68,1.73,2.38,2.38,0,0,1-1.73.67H274a2.12,2.12,0,0,1-2.41-1.9V50a2.17,2.17,0,0,0-2.48-2.41H251A2.17,2.17,0,0,0,248.51,50v83.42a2.17,2.17,0,0,0,2.48,2.41h18.13a2.17,2.17,0,0,0,2.48-2.41V103.73a2.61,2.61,0,0,1,.68-1.12A2.71,2.71,0,0,1,274,102h25.5a2.2,2.2,0,0,1,2.41,2.26v29.11a2.44,2.44,0,0,0,.75,1.73,2.38,2.38,0,0,0,1.73.68h18.2a2.38,2.38,0,0,0,1.73-.68,2.28,2.28,0,0,0,.76-1.73V50A2.41,2.41,0,0,0,324.33,48.23Z"/><path class="cls-3" d="M94.92,193.59a2.37,2.37,0,0,1-.93,2,4,4,0,0,1-2.51.71,6.41,6.41,0,0,1-2.65-.44v-1.09a7.06,7.06,0,0,0,1.3.4,6.64,6.64,0,0,0,1.39.15,2.82,2.82,0,0,0,1.69-.43,1.39,1.39,0,0,0,.57-1.19,1.56,1.56,0,0,0-.2-.82,2,2,0,0,0-.67-.59,10,10,0,0,0-1.44-.62,4.55,4.55,0,0,1-1.93-1.14,2.51,2.51,0,0,1-.58-1.73A2.15,2.15,0,0,1,89.8,187a3.49,3.49,0,0,1,2.22-.66,6.57,6.57,0,0,1,2.65.53l-.35,1a5.85,5.85,0,0,0-2.32-.5,2.22,2.22,0,0,0-1.4.38,1.25,1.25,0,0,0-.5,1.06,1.7,1.7,0,0,0,.18.83,1.81,1.81,0,0,0,.63.59,8.82,8.82,0,0,0,1.34.59,5.35,5.35,0,0,1,2.1,1.16A2.31,2.31,0,0,1,94.92,193.59Z"/><path class="cls-3" d="M100.1,196.29a3.2,3.2,0,0,1-1.29-.26,2.37,2.37,0,0,1-1-.8h-.08a10.21,10.21,0,0,1,.08,1.2v3h-1.1v-10.5h.89l.16,1h0a2.65,2.65,0,0,1,1-.86,3.13,3.13,0,0,1,1.29-.26,2.69,2.69,0,0,1,2.23,1,4.37,4.37,0,0,1,.78,2.77,4.31,4.31,0,0,1-.79,2.77A2.7,2.7,0,0,1,100.1,196.29Zm-.15-6.58a1.94,1.94,0,0,0-1.61.62,3.16,3.16,0,0,0-.51,1.95v.25a3.58,3.58,0,0,0,.51,2.18,1.93,1.93,0,0,0,1.63.66,1.68,1.68,0,0,0,1.47-.76,3.57,3.57,0,0,0,.53-2.1,3.46,3.46,0,0,0-.53-2.08A1.74,1.74,0,0,0,100,189.71Z"/><path class="cls-3" d="M111.29,192.53a4,4,0,0,1-.9,2.77,3.13,3.13,0,0,1-2.46,1,3.22,3.22,0,0,1-1.73-.46,3,3,0,0,1-1.16-1.3,4.5,4.5,0,0,1-.41-2,4,4,0,0,1,.88-2.76,3.13,3.13,0,0,1,2.46-1,3.08,3.08,0,0,1,2.42,1A4,4,0,0,1,111.29,192.53Zm-5.52,0a3.43,3.43,0,0,0,.55,2.11,1.91,1.91,0,0,0,1.63.73,2,2,0,0,0,1.64-.72,3.46,3.46,0,0,0,.56-2.12,3.39,3.39,0,0,0-.56-2.1,2.24,2.24,0,0,0-3.28,0A3.43,3.43,0,0,0,105.77,192.53Z"/><path class="cls-3" d="M118.17,196.16v-4.69a1.88,1.88,0,0,0-.4-1.32,1.65,1.65,0,0,0-1.26-.44,2.09,2.09,0,0,0-1.67.62,3.11,3.11,0,0,0-.53,2v3.8h-1.1v-7.25h.89l.18,1h.06a2.31,2.31,0,0,1,.94-.83,3.19,3.19,0,0,1,1.36-.29,2.76,2.76,0,0,1,2,.63,2.68,2.68,0,0,1,.66,2v4.73Z"/><path class="cls-3" d="M126.2,194.18a1.8,1.8,0,0,1-.75,1.56,3.54,3.54,0,0,1-2.12.55,4.55,4.55,0,0,1-2.25-.46v-1a5.73,5.73,0,0,0,1.12.41,4.83,4.83,0,0,0,1.16.16,2.64,2.64,0,0,0,1.32-.28,1,1,0,0,0,.1-1.56,5.88,5.88,0,0,0-1.44-.71,7.36,7.36,0,0,1-1.43-.66,2,2,0,0,1-.64-.64,1.65,1.65,0,0,1-.21-.85,1.63,1.63,0,0,1,.72-1.4,3.37,3.37,0,0,1,2-.51,5.94,5.94,0,0,1,2.29.47l-.39.9a5.28,5.28,0,0,0-2-.45,2.34,2.34,0,0,0-1.18.24.77.77,0,0,0-.39.68.79.79,0,0,0,.15.49,1.31,1.31,0,0,0,.48.39A10.18,10.18,0,0,0,124,192a4.78,4.78,0,0,1,1.74.94A1.69,1.69,0,0,1,126.2,194.18Z"/><path class="cls-3" d="M134.24,192.53a4,4,0,0,1-.89,2.77,3.17,3.17,0,0,1-2.47,1,3.21,3.21,0,0,1-1.72-.46,3,3,0,0,1-1.17-1.3,4.64,4.64,0,0,1-.41-2,4,4,0,0,1,.89-2.76,3.13,3.13,0,0,1,2.46-1,3.1,3.1,0,0,1,2.42,1A4,4,0,0,1,134.24,192.53Zm-5.52,0a3.42,3.42,0,0,0,.56,2.11,1.91,1.91,0,0,0,1.63.73,2,2,0,0,0,1.64-.72,3.46,3.46,0,0,0,.56-2.12,3.39,3.39,0,0,0-.56-2.1,2,2,0,0,0-1.65-.72,2,2,0,0,0-1.63.71A3.37,3.37,0,0,0,128.72,192.53Z"/><path class="cls-3" d="M139.47,188.78a3.79,3.79,0,0,1,.87.08l-.15,1a3.56,3.56,0,0,0-.8-.1,1.92,1.92,0,0,0-1.5.71,2.6,2.6,0,0,0-.63,1.78v3.89h-1.09v-7.25h.9l.13,1.34h.05a3.34,3.34,0,0,1,1-1.09A2.24,2.24,0,0,1,139.47,188.78Z"/><path class="cls-3" d="M144.76,196.29a3.35,3.35,0,0,1-2.54-1,3.79,3.79,0,0,1-.93-2.72,4.19,4.19,0,0,1,.87-2.78,2.84,2.84,0,0,1,2.31-1,2.76,2.76,0,0,1,2.16.89,3.45,3.45,0,0,1,.79,2.37v.69h-5a2.91,2.91,0,0,0,.64,1.94,2.25,2.25,0,0,0,1.73.66,5.74,5.74,0,0,0,2.31-.49v1a5.22,5.22,0,0,1-1.1.36A6.3,6.3,0,0,1,144.76,196.29Zm-.3-6.59a1.78,1.78,0,0,0-1.39.57,2.58,2.58,0,0,0-.61,1.57h3.79a2.41,2.41,0,0,0-.47-1.59A1.62,1.62,0,0,0,144.46,189.7Z"/><path class="cls-3" d="M154.23,195.19h-.06a2.6,2.6,0,0,1-2.28,1.1,2.69,2.69,0,0,1-2.21-1,4.27,4.27,0,0,1-.79-2.77,4.34,4.34,0,0,1,.8-2.78,2.94,2.94,0,0,1,4.47.08h.08l0-.52,0-.51v-2.95h1.1v10.29h-.9Zm-2.2.18a2,2,0,0,0,1.63-.61,3.08,3.08,0,0,0,.51-2v-.24a3.62,3.62,0,0,0-.51-2.19,2,2,0,0,0-1.64-.66,1.69,1.69,0,0,0-1.48.75,3.73,3.73,0,0,0-.51,2.12,3.56,3.56,0,0,0,.51,2.09A1.71,1.71,0,0,0,152,195.37Z"/><path class="cls-3" d="M161.28,186.49H164a5.13,5.13,0,0,1,2.79.58,2,2,0,0,1,.85,1.81,2.09,2.09,0,0,1-.48,1.42,2.23,2.23,0,0,1-1.39.73v.06c1.46.25,2.2,1,2.2,2.32a2.46,2.46,0,0,1-.88,2,3.69,3.69,0,0,1-2.45.73h-3.37Zm1.12,4.14h1.86a3,3,0,0,0,1.71-.37,1.44,1.44,0,0,0,.52-1.26,1.27,1.27,0,0,0-.58-1.18,3.65,3.65,0,0,0-1.85-.36H162.4Zm0,1v3.62h2a2.87,2.87,0,0,0,1.76-.45,1.66,1.66,0,0,0,.59-1.42,1.5,1.5,0,0,0-.6-1.32,3.16,3.16,0,0,0-1.84-.43Z"/><path class="cls-3" d="M168.74,188.91h1.18L171.5,193a15.22,15.22,0,0,1,.65,2.05h0c.06-.23.18-.61.36-1.16s.79-2.22,1.8-5h1.18l-3.12,8.25a4.13,4.13,0,0,1-1.08,1.74,2.31,2.31,0,0,1-1.52.51,4.17,4.17,0,0,1-1-.11v-.88a4,4,0,0,0,.81.08,1.67,1.67,0,0,0,1.62-1.27l.4-1Z"/><path class="cls-3" d="M291.09,189.61v-1.86h-2.32v-2.89l-.07,0-2.17.66,0,0v2.19h-3.42v-1.22a1.92,1.92,0,0,1,.38-1.3,1.3,1.3,0,0,1,1.05-.43,2.46,2.46,0,0,1,1,.23l.09,0v-1.95l0,0a3.73,3.73,0,0,0-1.28-.17,3.84,3.84,0,0,0-1.81.43,3.08,3.08,0,0,0-1.25,1.23,3.63,3.63,0,0,0-.45,1.81v1.34h-1.61v1.86h1.61v7.83h2.31V189.6h3.42v5c0,2,1,3.09,2.87,3.09a4.29,4.29,0,0,0,1-.11,3.18,3.18,0,0,0,.71-.22l0,0v-1.87l-.09.06a1.78,1.78,0,0,1-.46.21,1.93,1.93,0,0,1-.46.08,1.26,1.26,0,0,1-1-.36,1.92,1.92,0,0,1-.32-1.25v-4.57h2.32Z"/><path class="cls-3" d="M277.65,188.85a4.68,4.68,0,0,0-3.55-1.33,5.1,5.1,0,0,0-3.78,1.39,5.22,5.22,0,0,0-1.36,3.8,4.9,4.9,0,0,0,1.33,3.63,4.81,4.81,0,0,0,3.57,1.34,4.92,4.92,0,0,0,3.7-1.41,5.24,5.24,0,0,0,1.36-3.76A5,5,0,0,0,277.65,188.85ZM275.91,195a2.33,2.33,0,0,1-1.91.81,2.46,2.46,0,0,1-2-.83,3.5,3.5,0,0,1-.7-2.33,3.7,3.7,0,0,1,.7-2.39,2.39,2.39,0,0,1,1.94-.84,2.36,2.36,0,0,1,1.89.8,3.51,3.51,0,0,1,.7,2.37A3.83,3.83,0,0,1,275.91,195Z"/><path class="cls-3" d="M265.24,187.52a4.21,4.21,0,0,0-2.67.82,2.63,2.63,0,0,0-1,2.15,3,3,0,0,0,.22,1.21,2.39,2.39,0,0,0,.69.9,6.21,6.21,0,0,0,1.41.78,10.22,10.22,0,0,1,1.16.55,1.63,1.63,0,0,1,.51.42,1,1,0,0,1,.14.55c0,.66-.48,1-1.49,1a4,4,0,0,1-1.27-.23,4.82,4.82,0,0,1-1.28-.65l-.1-.07v2.22l0,0a5.88,5.88,0,0,0,1.22.38,6.66,6.66,0,0,0,1.31.15,4.37,4.37,0,0,0,2.82-.84,2.66,2.66,0,0,0,1.05-2.2,2.55,2.55,0,0,0-.56-1.67,4.78,4.78,0,0,0-1.92-1.22,5.23,5.23,0,0,1-1.38-.71,1,1,0,0,1-.27-.75.86.86,0,0,1,.35-.69,1.61,1.61,0,0,1,1-.28,4,4,0,0,1,1.17.18,3.75,3.75,0,0,1,1,.47l.09.07v-2.11l0,0a6.47,6.47,0,0,0-1-.29,7,7,0,0,0-1.13-.11"/><path class="cls-3" d="M259.16,188.85a4.68,4.68,0,0,0-3.55-1.33,5.06,5.06,0,0,0-3.77,1.39,5.22,5.22,0,0,0-1.37,3.8,5,5,0,0,0,1.33,3.63,4.84,4.84,0,0,0,3.57,1.34,4.92,4.92,0,0,0,3.7-1.41,5.24,5.24,0,0,0,1.36-3.76A5,5,0,0,0,259.16,188.85ZM257.43,195a2.35,2.35,0,0,1-1.92.81,2.45,2.45,0,0,1-2-.83,3.49,3.49,0,0,1-.71-2.33,3.64,3.64,0,0,1,.71-2.39,2.65,2.65,0,0,1,3.83,0,3.56,3.56,0,0,1,.69,2.37A3.83,3.83,0,0,1,257.43,195Z"/><path class="cls-3" d="M247,189.43v-1.68h-2.28v9.69H247v-5a3.41,3.41,0,0,1,.57-2,1.74,1.74,0,0,1,1.48-.78,2.55,2.55,0,0,1,.69.1,1.66,1.66,0,0,1,.52.21l.1.07v-2.3h0a2.33,2.33,0,0,0-.89-.14,2.39,2.39,0,0,0-1.53.55,3.09,3.09,0,0,0-.88,1.3Z"/><path class="cls-3" d="M240.61,187.52a5.52,5.52,0,0,0-2.77.67,4.37,4.37,0,0,0-1.83,1.88,6.06,6.06,0,0,0-.63,2.78,5.2,5.2,0,0,0,.61,2.5,4.44,4.44,0,0,0,1.71,1.73,5.11,5.11,0,0,0,2.5.6A5.43,5.43,0,0,0,243,197h0v-2.09l-.1.06a4.2,4.2,0,0,1-1.11.58,3.45,3.45,0,0,1-1.09.22,2.78,2.78,0,0,1-2.13-.84,3.24,3.24,0,0,1-.79-2.3,3.31,3.31,0,0,1,.82-2.36,2.78,2.78,0,0,1,2.14-.89,3.73,3.73,0,0,1,2.17.75l.1.07V188h0a3.52,3.52,0,0,0-1.06-.36,6.56,6.56,0,0,0-1.29-.13"/><rect class="cls-3" x="231.53" y="187.75" width="2.28" height="9.69"/><path class="cls-3" d="M232.69,183.62a1.35,1.35,0,0,0-1,.38,1.23,1.23,0,0,0-.41.95,1.17,1.17,0,0,0,.41.93,1.35,1.35,0,0,0,1,.37,1.39,1.39,0,0,0,1-.37,1.17,1.17,0,0,0,.41-.93,1.26,1.26,0,0,0-.4-.94,1.33,1.33,0,0,0-1-.39"/><polygon class="cls-3" points="227.01 187.04 227.01 197.45 229.33 197.45 229.33 183.92 226.12 183.92 222.02 193.96 218.05 183.92 214.69 183.92 214.69 197.45 216.88 197.45 216.88 187.03 216.96 187.03 221.15 197.45 222.8 197.45 226.93 187.04 227.01 187.04"/><rect class="cls-3" x="185.36" y="179.4" width="10.72" height="10.72"/><rect class="cls-3" x="197.21" y="179.4" width="10.72" height="10.72"/><rect class="cls-3" x="185.36" y="191.24" width="10.72" height="10.73"/><rect class="cls-3" x="197.21" y="191.24" width="10.72" height="10.73"/></g></g></svg>